<?xml version="1.0" encoding="utf-8"?>
<!-- Generator: Adobe Illustrator 28.1.0, SVG Export Plug-In . SVG Version: 6.00 Build 0)  -->
<svg version="1.1" id="Layer_1" xmlns="http://www.w3.org/2000/svg" xmlns:xlink="http://www.w3.org/1999/xlink" x="0px" y="0px"
	 viewBox="0 0 2000 1128" style="enable-background:new 0 0 2000 1128;" xml:space="preserve">
<style type="text/css">
	.st0{fill-opacity:3.000000e-02;}
	.st1{fill-opacity:2.000000e-02;}
	.st2{clip-path:url(#SVGID_00000157291969316518383340000015026833505927571631_);fill:#55AEA6;}
	.st3{clip-path:url(#SVGID_00000157291969316518383340000015026833505927571631_);}
	.st4{clip-path:url(#SVGID_00000156546607333039827410000011648185859594683805_);fill:#54AEA8;}
	.st5{clip-path:url(#SVGID_00000156546607333039827410000011648185859594683805_);fill:#B02827;}
	.st6{clip-path:url(#SVGID_00000156546607333039827410000011648185859594683805_);fill:#C0BFB3;}
	.st7{clip-path:url(#SVGID_00000156546607333039827410000011648185859594683805_);fill:#EA5435;}
	.st8{clip-path:url(#SVGID_00000156546607333039827410000011648185859594683805_);fill:#9DDAE4;}
	.st9{clip-path:url(#SVGID_00000156546607333039827410000011648185859594683805_);fill:#74756E;}
	.st10{clip-path:url(#SVGID_00000156546607333039827410000011648185859594683805_);fill:#55AEA6;}
</style>
<polygon class="st0" points="0,1077.8 392.6,778.4 1505,1127.7 0,1127.7 "/>
<polygon class="st1" points="392.2,778.4 283.3,0 0,0 0,666.5 "/>
<polygon class="st0" points="1000,0 2000,1010 2000,439.9 1749.8,0 "/>
<g>
	<g>
		<defs>
			<rect id="SVGID_1_" x="1631.5" y="714.2" width="288" height="144"/>
		</defs>
		<clipPath id="SVGID_00000090985201496985162700000011141204888338275775_">
			<use xlink:href="#SVGID_1_"  style="overflow:visible;"/>
		</clipPath>
		<polygon style="clip-path:url(#SVGID_00000090985201496985162700000011141204888338275775_);fill:#55AEA6;" points="1683.7,816.5 
			1690.3,805.7 1702.9,823.6 		"/>
		<g style="clip-path:url(#SVGID_00000090985201496985162700000011141204888338275775_);">
			<defs>
				<rect id="SVGID_00000163764607496384078870000009937598461114979763_" x="1631.5" y="714.2" width="288" height="144"/>
			</defs>
			<clipPath id="SVGID_00000126304554997961220190000000982475413217611936_">
				<use xlink:href="#SVGID_00000163764607496384078870000009937598461114979763_"  style="overflow:visible;"/>
			</clipPath>
			<path style="clip-path:url(#SVGID_00000126304554997961220190000000982475413217611936_);fill:#54AEA8;" d="M1717.3,844.1
				c-0.3-0.5-6.7-9.5-14.5-20.5l3.3,19.7v0c5.8,1.6,9.7,2.7,10,2.8C1717,846.2,1719.1,846.6,1717.3,844.1"/>
			<polygon style="clip-path:url(#SVGID_00000126304554997961220190000000982475413217611936_);fill:#B02827;" points="
				1688.7,838.4 1683.7,816.5 1702.9,823.6 			"/>
			<polygon style="clip-path:url(#SVGID_00000126304554997961220190000000982475413217611936_);fill:#B02827;" points="
				1679.6,804.5 1690.3,805.7 1674.9,783.9 			"/>
			<polygon style="clip-path:url(#SVGID_00000126304554997961220190000000982475413217611936_);fill:#C0BFB3;" points="
				1683.7,816.5 1679.6,804.5 1690.3,805.7 			"/>
			<polygon style="clip-path:url(#SVGID_00000126304554997961220190000000982475413217611936_);fill:#EA5435;" points="
				1671.9,833.8 1683.7,816.5 1688.7,838.4 			"/>
			<polygon style="clip-path:url(#SVGID_00000126304554997961220190000000982475413217611936_);fill:#C0BFB3;" points="
				1706.2,843.3 1688.7,838.4 1702.9,823.6 			"/>
			<polygon style="clip-path:url(#SVGID_00000126304554997961220190000000982475413217611936_);fill:#9DDAE4;" points="
				1683.7,816.5 1664.4,817.1 1671.9,833.8 			"/>
			<polygon style="clip-path:url(#SVGID_00000126304554997961220190000000982475413217611936_);fill:#C0BFB3;" points="
				1674.9,783.9 1665,796.1 1679.6,804.5 			"/>
			<polygon style="clip-path:url(#SVGID_00000126304554997961220190000000982475413217611936_);fill:#EA5435;" points="
				1679.6,804.5 1664.4,817.1 1683.7,816.5 			"/>
			<polygon style="clip-path:url(#SVGID_00000126304554997961220190000000982475413217611936_);fill:#C0BFB3;" points="
				1652.5,811.6 1664.4,817.1 1656.9,829.7 			"/>
			<path style="clip-path:url(#SVGID_00000126304554997961220190000000982475413217611936_);fill:#74756E;" d="M1790.3,826.9h-0.9
				v-1h0.6c0.8,0,1.1-0.4,1.1-1.2v-9.4h1.2v9.5C1792.4,826,1791.7,826.9,1790.3,826.9 M1791.1,811.6h1.3v1.3h-1.3V811.6z"/>
			<path style="clip-path:url(#SVGID_00000126304554997961220190000000982475413217611936_);fill:#74756E;" d="M1800.1,822.5
				c-0.6,0.6-1.3,0.9-2.3,0.9c-1,0-1.8-0.4-2.3-0.9c-0.8-0.8-1-2-1-3.2c0-1.2,0.2-2.4,1-3.2c0.6-0.6,1.3-0.9,2.3-0.9
				c1,0,1.7,0.4,2.3,0.9c0.8,0.8,1,2,1,3.2C1801.1,820.5,1800.9,821.6,1800.1,822.5 M1799.3,816.7c-0.4-0.4-0.9-0.6-1.5-0.6
				c-0.6,0-1.1,0.2-1.5,0.6c-0.6,0.6-0.6,1.6-0.6,2.5c0,0.9,0.1,1.9,0.6,2.5c0.4,0.4,0.9,0.6,1.5,0.6c0.6,0,1.1-0.2,1.5-0.6
				c0.6-0.6,0.6-1.6,0.6-2.5C1799.9,818.3,1799.9,817.3,1799.3,816.7"/>
			<path style="clip-path:url(#SVGID_00000126304554997961220190000000982475413217611936_);fill:#74756E;" d="M1808.3,823.3v-0.9
				c-0.6,0.7-1.4,1-2.3,1c-0.9,0-1.6-0.3-2.1-0.7c-0.6-0.6-0.8-1.3-0.8-2.3v-5.2h1.2v5c0,1.4,0.8,2.1,2,2.1c1.2,0,2-0.7,2-2.1v-5
				h1.2v8.1H1808.3z"/>
			<path style="clip-path:url(#SVGID_00000126304554997961220190000000982475413217611936_);fill:#74756E;" d="M1816.5,816.7
				c-0.4-0.4-0.8-0.6-1.4-0.6c-1.2,0-1.9,0.9-1.9,2.2v5h-1.2v-8.1h1.2v1c0.4-0.7,1.3-1.1,2.3-1.1c0.8,0,1.4,0.2,1.9,0.8
				L1816.5,816.7z"/>
			<path style="clip-path:url(#SVGID_00000126304554997961220190000000982475413217611936_);fill:#74756E;" d="M1823.7,823.3v-5
				c0-1.4-0.8-2.1-2-2.1c-1.2,0-2,0.7-2,2.1v5h-1.2v-8.1h1.2v0.9c0.6-0.7,1.4-1,2.3-1c0.9,0,1.6,0.3,2.1,0.8
				c0.6,0.6,0.8,1.3,0.8,2.2v5.2H1823.7z"/>
			<path style="clip-path:url(#SVGID_00000126304554997961220190000000982475413217611936_);fill:#74756E;" d="M1828.1,819.6
				c0,1.8,0.8,2.8,2.4,2.8c0.9,0,1.5-0.3,2.1-0.9l0.8,0.7c-0.8,0.8-1.6,1.2-3,1.2c-2.1,0-3.5-1.3-3.5-4.1c0-2.6,1.3-4.1,3.3-4.1
				c2.1,0,3.3,1.5,3.3,3.9v0.5H1828.1z M1832.1,817.3c-0.3-0.7-1-1.2-1.9-1.2c-0.9,0-1.6,0.5-1.9,1.2c-0.2,0.4-0.2,0.7-0.2,1.3h4.3
				C1832.3,818,1832.3,817.8,1832.1,817.3"/>
			<path style="clip-path:url(#SVGID_00000126304554997961220190000000982475413217611936_);fill:#74756E;" d="M1837.4,825.2
				c-0.2,0.4-0.3,0.7-0.6,1c-0.4,0.4-1,0.6-1.6,0.6h-0.5v-1.1h0.4c0.8,0,1.1-0.3,1.3-1l0.6-1.6l-2.9-7.9h1.3l2.2,6.5l2.2-6.5h1.3
				L1837.4,825.2z"/>
			<path style="clip-path:url(#SVGID_00000126304554997961220190000000982475413217611936_);fill:#74756E;" d="M1844.9,823.4
				c-1.4,0-2.4-0.3-3.3-1.2l0.8-0.8c0.6,0.7,1.5,0.9,2.5,0.9c1.3,0,2.2-0.5,2.2-1.4c0-0.7-0.4-1.1-1.4-1.2l-1.3-0.1
				c-1.6-0.1-2.4-0.8-2.4-2.2c0-1.5,1.2-2.4,3-2.4c1.2,0,2.2,0.3,2.9,0.9l-0.8,0.8c-0.6-0.4-1.3-0.6-2.1-0.6c-1.2,0-1.8,0.5-1.8,1.3
				c0,0.7,0.4,1.1,1.4,1.2l1.3,0.1c1.4,0.1,2.4,0.7,2.4,2.2C1848.2,822.5,1846.8,823.4,1844.9,823.4"/>
			<polygon style="clip-path:url(#SVGID_00000126304554997961220190000000982475413217611936_);fill:#74756E;" points="
				1861.4,823.3 1860.3,823.3 1858.2,817 1856.1,823.3 1855,823.3 1852.5,815.2 1853.7,815.2 1855.6,821.7 1857.7,815.2 
				1858.7,815.2 1860.9,821.7 1862.7,815.2 1864,815.2 			"/>
			<path style="clip-path:url(#SVGID_00000126304554997961220190000000982475413217611936_);fill:#74756E;" d="M1865.2,811.6h1.3
				v1.3h-1.3V811.6z M1865.2,815.2h1.2v8.1h-1.2V815.2z"/>
			<path style="clip-path:url(#SVGID_00000126304554997961220190000000982475413217611936_);fill:#74756E;" d="M1871.2,823.3
				c-1.4,0-2.1-1-2.1-2.2v-5h-1v-0.9h1v-2.5h1.2v2.5h1.7v0.9h-1.7v4.9c0,0.7,0.3,1.2,1.1,1.2h0.6v1H1871.2z"/>
			<path style="clip-path:url(#SVGID_00000126304554997961220190000000982475413217611936_);fill:#74756E;" d="M1879.2,823.3v-5
				c0-1.4-0.8-2.1-2-2.1c-1.2,0-2,0.7-2,2.1v5h-1.2v-11.7h1.2v4.5c0.6-0.7,1.4-1,2.3-1c1.8,0,2.9,1.2,2.9,3v5.2H1879.2z"/>
			<path style="clip-path:url(#SVGID_00000126304554997961220190000000982475413217611936_);fill:#74756E;" d="M1888.5,825.2
				c-0.2,0.4-0.3,0.7-0.6,1c-0.4,0.4-1,0.6-1.6,0.6h-0.5v-1.1h0.4c0.8,0,1.1-0.3,1.3-1l0.6-1.6l-2.9-7.9h1.3l2.2,6.5l2.2-6.5h1.3
				L1888.5,825.2z"/>
			<path style="clip-path:url(#SVGID_00000126304554997961220190000000982475413217611936_);fill:#74756E;" d="M1898.4,822.5
				c-0.6,0.6-1.3,0.9-2.3,0.9c-1,0-1.8-0.4-2.3-0.9c-0.8-0.8-1-2-1-3.2c0-1.2,0.2-2.4,1-3.2c0.6-0.6,1.3-0.9,2.3-0.9
				c1,0,1.8,0.4,2.3,0.9c0.8,0.8,1,2,1,3.2C1899.4,820.5,1899.2,821.6,1898.4,822.5 M1897.6,816.7c-0.4-0.4-0.9-0.6-1.5-0.6
				c-0.6,0-1.1,0.2-1.5,0.6c-0.6,0.6-0.7,1.6-0.7,2.5c0,0.9,0.1,1.9,0.7,2.5c0.4,0.4,0.9,0.6,1.5,0.6c0.6,0,1.1-0.2,1.5-0.6
				c0.6-0.6,0.6-1.6,0.6-2.5C1898.2,818.3,1898.2,817.3,1897.6,816.7"/>
			<path style="clip-path:url(#SVGID_00000126304554997961220190000000982475413217611936_);fill:#74756E;" d="M1906.6,823.3v-0.9
				c-0.6,0.7-1.4,1-2.3,1c-0.9,0-1.6-0.3-2.1-0.7c-0.6-0.6-0.8-1.3-0.8-2.3v-5.2h1.2v5c0,1.4,0.8,2.1,2,2.1c1.2,0,2-0.7,2-2.1v-5
				h1.2v8.1H1906.6z"/>
			<polygon style="clip-path:url(#SVGID_00000126304554997961220190000000982475413217611936_);fill:#9DDAE4;" points="
				1664.4,817.1 1665,796.1 1652.5,811.6 			"/>
			<polygon style="clip-path:url(#SVGID_00000126304554997961220190000000982475413217611936_);fill:#55AEA6;" points="1665,796.1 
				1664.4,817.1 1679.6,804.5 			"/>
			<polygon style="clip-path:url(#SVGID_00000126304554997961220190000000982475413217611936_);fill:#55AEA6;" points="
				1664.4,817.1 1656.9,829.7 1671.9,833.8 			"/>
			<path style="clip-path:url(#SVGID_00000126304554997961220190000000982475413217611936_);fill:#EA5435;" d="M1717.1,727.9
				c-1.7,0.6-45.3,17.7-48.8,19.1c-3.5,1.4-4.9,2-5.9,5.8c-0.1,0.5-0.6,2.1-1.2,4.5l-17.8,65.4l-0.1,0.3c0,0.2-0.1,0.6,0,1
				c-0.1-0.8,0.4-1.5,0.6-1.7l75.1-92.4C1720.5,728,1719.8,726.9,1717.1,727.9"/>
			<path style="clip-path:url(#SVGID_00000126304554997961220190000000982475413217611936_);fill:#B02827;" d="M1643.3,822.7
				c0,0,0,0.1-0.1,0.3l0,0C1643.3,822.7,1643.3,822.7,1643.3,822.7 M1652.5,811.6L1652.5,811.6l-8.7,10.7c0,0,0,0,0,0l0,0
				c-0.1,0.2-0.6,0.8-0.6,1.7c0-0.4,0-0.8,0-1c0,0.2-0.1,0.6,0,1c0.1,1,0.6,2.2,2.4,2.6c0.1,0,4.6,1.3,11.3,3.1L1652.5,811.6z"/>
			<path style="clip-path:url(#SVGID_00000126304554997961220190000000982475413217611936_);fill:#74756E;" d="M1716.5,777.5h5.4
				V803h-5.4V777.5z M1724.1,792.7c-0.2-0.4-0.5-0.8-0.7-1.3c-0.2-0.5-0.3-1-0.3-1.6c0-1,0.2-1.9,0.7-2.6l6.4-9.7h6.1l-8.5,12.3
				l8.8,13.2h-6.1L1724.1,792.7z"/>
			<path style="clip-path:url(#SVGID_00000126304554997961220190000000982475413217611936_);fill:#74756E;" d="M1744.4,796.6
				c0,0.8,0.2,1.4,0.7,2c0.5,0.6,1.1,0.8,2,0.8c0.6,0,1-0.1,1.3-0.2c0.3-0.1,0.6-0.3,0.8-0.4v1.8c0,0.9-0.3,1.6-0.8,2.1
				c-0.5,0.6-1.3,0.8-2.5,0.8h-0.6c-2.2,0-3.8-0.6-4.9-1.9c-1.1-1.3-1.6-3.2-1.6-6v-10.8h5.5V796.6z M1756.3,797.1
				c0,2.3-0.5,4-1.5,4.9c-1,1-2.3,1.4-3.9,1.4h-1.2c0.4-0.3,0.8-0.7,0.9-1.3c0.2-0.6,0.3-1.2,0.3-2v-15.4h5.4V797.1z"/>
			<path style="clip-path:url(#SVGID_00000126304554997961220190000000982475413217611936_);fill:#74756E;" d="M1773.7,802.2
				c-0.7,0.4-1.6,0.7-2.5,0.9c-1,0.2-2.1,0.3-3.3,0.3c-1.3,0-2.4-0.2-3.2-0.5c-0.8-0.3-1.5-0.8-1.9-1.4c-0.5-0.6-0.8-1.2-0.9-2
				c-0.2-0.7-0.2-1.5-0.2-2.3v-8.4h-2.3v-4.1h2.8l0.9-5.1h3.9v17.5c0,1.2,0.7,1.8,2.2,1.8c0.5,0,1,0,1.4-0.1
				c0.5-0.1,0.9-0.1,1.3-0.2c0.4-0.1,0.9-0.2,1.3-0.3L1773.7,802.2z M1768.5,784.8h7.3l0.9-5.1h3.9v17.5c0,1.2,0.7,1.8,2.2,1.8
				c0.5,0,1,0,1.4-0.1c0.5-0.1,0.9-0.1,1.3-0.2c0.5-0.1,0.9-0.2,1.3-0.3l0.6,3.6c-0.7,0.4-1.6,0.7-2.5,0.9c-1,0.2-2.1,0.3-3.3,0.3
				c-1.3,0-2.4-0.2-3.2-0.5c-0.8-0.3-1.4-0.8-1.9-1.4c-0.5-0.6-0.8-1.2-0.9-2c-0.2-0.7-0.2-1.5-0.2-2.3v-8.4h-6.8V784.8z
				 M1782.1,784.8h5.5v4.1h-5.5V784.8z"/>
			<path style="clip-path:url(#SVGID_00000126304554997961220190000000982475413217611936_);fill:#74756E;" d="M1795.6,796.6
				c0,0.8,0.2,1.4,0.7,2c0.4,0.6,1.1,0.8,2,0.8c0.6,0,1-0.1,1.3-0.2c0.3-0.1,0.6-0.3,0.8-0.4v1.8c0,0.9-0.3,1.6-0.8,2.1
				c-0.5,0.6-1.3,0.8-2.5,0.8h-0.6c-2.2,0-3.8-0.6-4.8-1.9c-1.1-1.3-1.6-3.2-1.6-6v-10.8h5.5V796.6z M1807.5,797.1
				c0,2.3-0.5,4-1.5,4.9c-1,1-2.3,1.4-4,1.4h-1.2c0.4-0.3,0.8-0.7,0.9-1.3c0.2-0.6,0.3-1.2,0.3-2v-15.4h5.4V797.1z"/>
			<path style="clip-path:url(#SVGID_00000126304554997961220190000000982475413217611936_);fill:#74756E;" d="M1817.4,803h-5.3
				v-25.8h5.4L1817.4,803z M1829.5,784.8l-6.1,8.1l6.8,10.1h-4c-0.5,0-0.9,0-1.2-0.1c-0.3,0-0.6-0.1-0.8-0.3
				c-0.2-0.1-0.4-0.3-0.6-0.5c-0.2-0.2-0.4-0.5-0.6-0.9l-3-4.8c-0.2-0.3-0.3-0.6-0.4-0.8c-0.1-0.2-0.2-0.5-0.3-0.7
				c-0.1-0.2-0.1-0.5-0.2-0.8c0-0.3-0.1-0.6-0.1-0.9v-1c0-0.5,0-0.9,0.1-1.2c0.1-0.3,0.2-0.6,0.5-0.9l3.7-5.3H1829.5z"/>
			<path style="clip-path:url(#SVGID_00000126304554997961220190000000982475413217611936_);fill:#74756E;" d="M1843.7,787
				c0-0.6-0.1-1.1-0.1-1.6c-0.1-0.4-0.3-0.8-0.6-1.2c1,0,1.9,0.2,2.7,0.4c0.8,0.2,1.4,0.6,1.9,1.1c0.5,0.5,0.9,1.2,1.2,2
				c0.3,0.8,0.4,1.8,0.4,3v12h-1.7c-1.1,0-2-0.2-2.7-0.7c-0.7-0.5-1-1.2-1-2.2v-5h-4.9c-0.7,0-1.1,0.2-1.4,0.5
				c-0.3,0.3-0.4,0.7-0.4,1.3v0.7c0,1.3,0.7,1.9,2.1,1.9c0.4,0,0.9-0.1,1.4-0.2c0.6-0.1,1.1-0.3,1.5-0.6v1.9c0,0.2,0,0.5,0.1,0.8
				c0.1,0.3,0.2,0.5,0.3,0.6c-0.2,0.2-0.6,0.4-0.9,0.6c-0.4,0.2-0.8,0.4-1.2,0.5c-0.4,0.1-0.9,0.3-1.4,0.4c-0.5,0.1-1,0.1-1.4,0.1
				c-0.9,0-1.6-0.1-2.4-0.3c-0.7-0.2-1.3-0.6-1.9-1c-0.5-0.4-1-1-1.3-1.6c-0.3-0.7-0.4-1.4-0.4-2.3v-1.8c0-1.5,0.5-2.6,1.5-3.4
				c1-0.8,2.3-1.2,4.1-1.2h6.5v-0.8V787z M1842,788.6c-0.2,0-0.4-0.1-0.6-0.1h-0.7c-0.9,0-2,0-3.4,0.1c-1.4,0.1-2.8,0.1-4.3,0.2
				l-0.5-3.7c0.6-0.1,1.2-0.2,1.9-0.3c0.7-0.1,1.4-0.2,2.2-0.3c0.8-0.1,1.5-0.1,2.3-0.2c0.7,0,1.5-0.1,2.1-0.1
				c0.4,0.2,0.7,0.6,0.8,1.1c0.1,0.5,0.2,0.9,0.2,1.4V788.6z"/>
			<path style="clip-path:url(#SVGID_00000126304554997961220190000000982475413217611936_);fill:#74756E;" d="M1860.6,784.3
				c-0.6,0.3-1,0.8-1.2,1.5c-0.2,0.7-0.3,1.3-0.3,1.9V803h-5.5v-14.2c0-1,0.2-1.8,0.5-2.4c0.3-0.6,0.8-1.1,1.4-1.4
				c0.6-0.3,1.3-0.5,2.1-0.6c0.8-0.1,1.6-0.1,2.5-0.1H1860.6z M1866.3,788.8l-1.7,0.1c-0.9,0-1.7,0.2-2.3,0.4
				c-0.6,0.2-1.1,0.5-1.6,0.8v-2.4c0-1.1,0.3-1.9,0.9-2.5c0.6-0.6,1.6-0.8,2.9-0.8h2L1866.3,788.8z"/>
			<path style="clip-path:url(#SVGID_00000126304554997961220190000000982475413217611936_);fill:#74756E;" d="M1880.2,787
				c0-0.6,0-1.1-0.1-1.6c-0.1-0.4-0.3-0.8-0.6-1.2c1,0,1.9,0.2,2.7,0.4c0.8,0.2,1.4,0.6,1.9,1.1c0.5,0.5,0.9,1.2,1.2,2
				c0.3,0.8,0.4,1.8,0.4,3v12h-1.7c-1.1,0-2-0.2-2.7-0.7c-0.7-0.5-1-1.2-1-2.2v-5h-4.9c-0.7,0-1.1,0.2-1.4,0.5
				c-0.3,0.3-0.4,0.7-0.4,1.3v0.7c0,1.3,0.7,1.9,2.1,1.9c0.4,0,0.9-0.1,1.4-0.2c0.6-0.1,1.1-0.3,1.5-0.6v1.9c0,0.2,0,0.5,0.1,0.8
				c0.1,0.3,0.2,0.5,0.3,0.6c-0.2,0.2-0.5,0.4-0.9,0.6c-0.4,0.2-0.8,0.4-1.2,0.5c-0.4,0.1-0.9,0.3-1.4,0.4c-0.5,0.1-0.9,0.1-1.4,0.1
				c-0.9,0-1.6-0.1-2.4-0.3c-0.7-0.2-1.3-0.6-1.9-1c-0.5-0.4-1-1-1.3-1.6c-0.3-0.7-0.4-1.4-0.4-2.3v-1.8c0-1.5,0.5-2.6,1.5-3.4
				c1-0.8,2.3-1.2,4.1-1.2h6.5v-0.8V787z M1878.5,788.6c-0.2,0-0.4-0.1-0.6-0.1h-0.7c-0.9,0-2,0-3.4,0.1c-1.4,0.1-2.8,0.1-4.3,0.2
				l-0.5-3.7c0.6-0.1,1.2-0.2,1.9-0.3c0.7-0.1,1.4-0.2,2.2-0.3c0.7-0.1,1.5-0.1,2.3-0.2c0.7,0,1.5-0.1,2.1-0.1
				c0.4,0.2,0.7,0.6,0.8,1.1c0.2,0.5,0.2,0.9,0.2,1.4V788.6z"/>
			<path style="clip-path:url(#SVGID_00000126304554997961220190000000982475413217611936_);fill:#74756E;" d="M1890.1,790
				c0-1.1,0.2-2,0.5-2.8c0.3-0.7,0.8-1.3,1.3-1.8c0.6-0.5,1.3-0.8,2.1-1c0.8-0.2,1.7-0.3,2.6-0.3h0.4c-0.6,0.4-1,0.9-1.2,1.6
				c-0.2,0.6-0.3,1.3-0.3,2v15.2h-5.4V790z M1904.9,803c-0.9,0-1.5-0.2-1.9-0.5c-0.4-0.4-0.6-1-0.6-1.9v-9.9c0-0.8-0.2-1.4-0.6-1.8
				c-0.4-0.4-1.1-0.6-2-0.6c-0.6,0-1.1,0.1-1.5,0.2c-0.4,0.2-0.8,0.4-1.2,0.6v-1.6c0-1.1,0.3-1.9,0.9-2.5c0.6-0.6,1.6-0.9,3.1-0.9
				c2.3,0,4,0.5,5.1,1.6c1.1,1.1,1.6,2.7,1.6,4.7V803H1904.9z"/>
		</g>
	</g>
</g>
</svg>
